<svg width="14" height="9" viewBox="0 0 14 9" fill="none" xmlns="http://www.w3.org/2000/svg">
    <path d="M13.998 0.00099369H0.006V8.34302H13.998V0.00099369Z" fill="white"/>
    <path d="M13.998 5.56268H0.006V8.34302H13.998V5.56268Z" fill="#DA0000"/>
    <path d="M7.193 3.58523L7.307 3.69852V4.26691L7.25 5.00422C7.37176 4.94001 7.47138 4.84102 7.536 4.72003C7.63442 4.55668 7.68641 4.36985 7.68641 4.17946C7.68641 3.98907 7.63442 3.80224 7.536 3.63889C7.70002 3.77529 7.80809 3.96666 7.83978 4.17685C7.87147 4.38703 7.82459 4.60147 7.708 4.77965C7.62398 4.91985 7.50609 5.037 7.365 5.12049C7.4918 5.17108 7.62902 5.19051 7.765 5.17713C7.6177 5.23403 7.4543 5.23403 7.307 5.17713V5.23377L7.193 5.34705L7.136 5.23377V5.17713C6.98468 5.20557 6.82933 5.20557 6.678 5.17713C6.81385 5.18624 6.95012 5.16694 7.078 5.12049C6.90976 5.05502 6.76877 4.93489 6.678 4.77965C6.57798 4.59729 6.54065 4.38744 6.5717 4.18206C6.60275 3.97667 6.70047 3.78699 6.85 3.64187C6.75179 3.79472 6.69961 3.97228 6.69961 4.15363C6.69961 4.33497 6.75179 4.51253 6.85 4.66538C6.91462 4.78637 7.01424 4.88535 7.136 4.94957L7.078 4.2679V3.69852C7.135 3.69852 7.136 3.64187 7.193 3.58523ZM7.593 3.64187C7.73757 3.68292 7.86772 3.76327 7.96878 3.87388C8.06985 3.9845 8.13781 4.12096 8.165 4.2679C8.18188 4.41056 8.15878 4.55509 8.09826 4.68554C8.03773 4.81599 7.94213 4.92731 7.822 5.00721C7.96536 4.78867 8.02629 4.52678 7.994 4.2679C7.93911 4.01889 7.79644 3.79717 7.593 3.64187ZM6.793 3.64187C6.58956 3.79717 6.44789 4.01889 6.393 4.2679C6.36071 4.52678 6.42164 4.78867 6.565 5.00721C6.44487 4.92731 6.34927 4.81599 6.28874 4.68554C6.22822 4.55509 6.20512 4.41056 6.222 4.2679C6.24903 4.1212 6.31669 3.98491 6.41738 3.87432C6.51808 3.76373 6.64881 3.68323 6.793 3.64187ZM7.022 3.58523C6.965 3.52859 6.908 3.47195 6.965 3.41432C6.96709 3.44368 6.97978 3.4713 7.00072 3.49211C7.02166 3.51292 7.04946 3.52552 7.079 3.5276C7.136 3.5276 7.193 3.5276 7.193 3.47096C7.25 3.5276 7.25 3.5276 7.307 3.5276C7.33672 3.52575 7.36476 3.51325 7.38591 3.49242C7.40705 3.47158 7.41988 3.44384 7.422 3.41432C7.42594 3.44523 7.42287 3.47662 7.41301 3.5062C7.40314 3.53578 7.38674 3.56278 7.365 3.58523H7.193C7.136 3.58523 7.079 3.64187 7.022 3.58523Z" fill="#DA0000"/>
    <path d="M0 0H14V2.84394H0V0Z" fill="#239F40"/>
</svg>